<svg width="277" height="104" fill="none" xmlns="http://www.w3.org/2000/svg"><path d="M60.202 41.864c1.088 0 2.016.232 2.784.696.768.448 1.36 1.208 1.776 2.28.416 1.056.624 2.496.624 4.32V68h-5.52V49.952c0-1.152-.096-1.968-.288-2.448-.176-.48-.584-.72-1.224-.72-.528 0-1.064.16-1.608.48-.528.304-1.08.856-1.656 1.656V68h-4.776V49.952c0-1.152-.096-1.968-.288-2.448-.176-.48-.584-.72-1.224-.72-.544 0-1.08.16-1.608.48-.528.304-1.08.856-1.656 1.656V68h-5.592V42.584h4.728l.408 2.64c.752-1.056 1.544-1.88 2.376-2.472.832-.592 1.832-.888 3-.888.96 0 1.808.24 2.544.72.752.464 1.288 1.264 1.608 2.4.736-.928 1.56-1.68 2.472-2.256.912-.576 1.952-.864 3.12-.864Zm21.269 0c2.528 0 4.672.552 6.432 1.656 1.76 1.104 3.096 2.664 4.008 4.68.928 2 1.392 4.344 1.392 7.032 0 2.752-.464 5.136-1.392 7.152-.928 2.016-2.272 3.576-4.032 4.68-1.76 1.104-3.904 1.656-6.432 1.656-2.512 0-4.656-.536-6.432-1.608-1.76-1.088-3.104-2.632-4.032-4.632-.928-2.016-1.392-4.416-1.392-7.2 0-2.656.464-4.992 1.392-7.008.928-2.016 2.28-3.584 4.056-4.704 1.776-1.136 3.92-1.704 6.432-1.704Zm0 4.776c-1.776 0-3.104.696-3.984 2.088-.864 1.392-1.296 3.576-1.296 6.552 0 3.008.432 5.208 1.296 6.6.864 1.376 2.184 2.064 3.96 2.064 1.776 0 3.096-.688 3.96-2.064.864-1.392 1.296-3.608 1.296-6.648 0-2.96-.432-5.128-1.296-6.504-.864-1.392-2.176-2.088-3.936-2.088ZM99.932 68v-4.392h3.576V46.952h-3.576v-4.368h8.4l1.176 5.832c.928-2.16 2.096-3.784 3.504-4.872 1.408-1.104 3.176-1.656 5.304-1.656.816 0 1.536.064 2.16.192.64.128 1.248.296 1.824.504l-1.896 5.328a13.093 13.093 0 0 0-1.416-.288 8.647 8.647 0 0 0-1.512-.12c-1.76 0-3.296.688-4.608 2.064-1.296 1.36-2.304 3.208-3.024 5.544v8.496h5.064V68H99.932Zm17.016-15.504v-6.744l.864-3.168h4.488l-1.128 9.912h-4.224Zm16.925 4.728c.128 1.584.488 2.872 1.08 3.864.608.992 1.384 1.72 2.328 2.184.944.464 1.992.696 3.144.696 1.216 0 2.36-.192 3.432-.576a14.78 14.78 0 0 0 3.168-1.608l2.64 3.624c-1.184.992-2.6 1.792-4.248 2.4-1.632.608-3.432.912-5.4.912-2.752 0-5.072-.568-6.96-1.704-1.872-1.136-3.288-2.712-4.248-4.728-.96-2.016-1.44-4.336-1.44-6.96 0-2.528.472-4.808 1.416-6.84s2.304-3.64 4.08-4.824c1.776-1.2 3.92-1.8 6.432-1.8 2.336 0 4.352.512 6.048 1.536 1.696 1.024 3.008 2.496 3.936 4.416.928 1.904 1.392 4.2 1.392 6.888 0 .432-.016.872-.048 1.32-.016.448-.04.848-.072 1.2h-16.68Zm5.448-10.896c-1.536 0-2.8.552-3.792 1.656-.976 1.088-1.552 2.816-1.728 5.184h10.704c-.032-2.144-.48-3.816-1.344-5.016-.848-1.216-2.128-1.824-3.84-1.824Zm19.926 8.64v-3.984h23.424v3.984h-23.424Zm55.738 0h-33.312v-3.984h33.312v3.984Zm5.784-16.848 13.296 14.856-13.296 14.856-3.312-2.808 10.992-12.048-10.992-12.048 3.312-2.808Zm-15.264 0 13.296 14.856-13.296 14.856-3.312-2.808 6.288-6.912a33.998 33.998 0 0 1 1.776-1.824 10.2 10.2 0 0 1 1.728-1.32v-3.984a11.048 11.048 0 0 1-1.728-1.296 44.035 44.035 0 0 1-1.776-1.848l-6.288-6.912 3.312-2.808Z" fill="#000"/></svg>
